# This file uses centimeters as units for non-parametric coordinates.

mtllib treeWithColor.mtl
g default
v 0.117346 0.245416 -0.361154
v -0.223205 0.245416 -0.307215
v -0.361153 0.245416 0.117346
v -0.223205 0.245416 0.307215
v 0.223205 0.245416 0.307215
v 0.361154 0.245416 -0.117346
v 0.000000 1.004894 0.000000
v -0.037590 0.004124 -0.050790
v -0.060822 0.004124 0.019400
v 0.037590 0.004124 0.050790
v 0.037590 0.666332 -0.050790
v -0.037590 0.666332 -0.050790
v -0.060822 0.666332 -0.019400
v -0.037590 0.666332 0.050790
v 0.037590 0.666332 0.050790
v 0.060822 0.666332 -0.019400
v 0.060822 0.004124 -0.019400
vt 0.737764 0.172746
vt 0.646946 0.452254
vt 0.577254 0.012236
vt 0.353054 0.452254
vt 0.262236 0.327254
vt 0.353054 0.047746
vt 0.250000 0.500000
vt 0.325000 0.500000
vt 0.500000 1.000000
vt 0.400000 0.500000
vt 0.500000 0.500000
vt 0.550000 0.500000
vt 0.650000 0.500000
vt 0.750000 0.500000
vt 0.375000 0.688440
vt 0.375000 0.312500
vt 0.400000 0.688440
vt 0.450000 0.312500
vt 0.450000 0.688440
vt 0.475000 0.688440
vt 0.500000 0.312500
vt 0.525000 0.688440
vt 0.575000 0.312500
vt 0.575000 0.688440
vt 0.625000 0.312500
vt 0.625000 0.688440
vt 0.351397 0.204534
vt 0.408159 0.029841
vt 0.648603 0.107966
vt 0.591841 0.282659
vt 0.648603 0.892034
vt 0.591841 0.970159
vt 0.591842 0.717341
vt 0.408159 0.970159
vt 0.351397 0.892034
vt 0.408159 0.717341
vn 0.000000 -1.000000 0.000000
vn 0.000000 -1.000000 0.000000
vn 0.000000 -1.000000 0.000000
vn 0.000000 -1.000000 0.000000
vn 0.000000 -1.000000 0.000000
vn 0.000000 -1.000000 0.000000
vn 0.000000 -1.000000 0.000000
vn 0.000000 -1.000000 0.000000
vn 0.000000 -1.000000 0.000000
vn 0.000000 -1.000000 0.000000
vn 0.000000 -1.000000 0.000000
vn 0.000000 -1.000000 0.000000
vn 0.883193 0.443539 -0.152456
vn 0.276393 0.447214 -0.850651
vn 0.055912 0.995038 0.082299
vn 0.276393 0.447214 -0.850651
vn -0.624907 0.443539 -0.642467
vn 0.055912 0.995038 0.082299
vn -0.624907 0.443539 -0.642467
vn -0.901774 0.431783 0.019182
vn 0.055912 0.995038 0.082299
vn -0.901774 0.431783 0.019182
vn -0.296906 0.431783 0.851710
vn 0.055912 0.995038 0.082299
vn -0.296906 0.431783 0.851710
vn 0.525731 0.447214 0.723607
vn 0.055912 0.995038 0.082299
vn 0.525731 0.447214 0.723607
vn 0.883193 0.443539 -0.152456
vn 0.055912 0.995038 0.082299
vn 1.000000 0.000000 0.000000
vn 0.812130 -0.027565 -0.582825
vn 0.310871 -0.003290 -0.950447
vn 0.812130 -0.027565 -0.582825
vn -0.312546 -0.036533 -0.949200
vn 0.310871 -0.003290 -0.950447
vn 0.310871 -0.003290 -0.950447
vn -0.312546 -0.036533 -0.949200
vn -0.303882 0.000000 -0.952710
vn -0.303882 0.000000 -0.952710
vn -0.312546 -0.036533 -0.949200
vn -0.999809 0.011819 -0.015544
vn -0.312546 -0.036533 -0.949200
vn -0.809468 -0.036670 0.586018
vn -0.999809 0.011819 -0.015544
vn -0.999809 0.011819 -0.015544
vn -0.809468 -0.036670 0.586018
vn -0.570507 0.007737 0.821257
vn -0.809468 -0.036670 0.586018
vn 0.322126 -0.026110 0.946337
vn -0.570507 0.007737 0.821257
vn -0.570507 0.007737 0.821257
vn 0.322126 -0.026110 0.946337
vn 0.580668 0.000000 0.814141
vn 0.322126 -0.026110 0.946337
vn 0.812130 -0.027565 -0.582825
vn 0.580668 0.000000 0.814141
vn 0.580668 0.000000 0.814141
vn 0.812130 -0.027565 -0.582825
vn 1.000000 0.000000 0.000000
vn 0.000000 -1.000000 0.000000
vn 0.000000 -1.000000 0.000000
vn 0.000000 -1.000000 0.000000
vn 0.000000 -1.000000 0.000000
vn 0.000000 -1.000000 0.000000
vn 0.000000 -1.000000 0.000000
vn 0.000000 1.000000 0.000000
vn 0.000000 1.000000 0.000000
vn 0.000000 1.000000 -0.000001
vn 0.000000 1.000000 0.000000
vn 0.000000 1.000000 0.000001
vn 0.000000 1.000000 -0.000001
vn 0.000000 1.000000 0.000001
vn 0.000000 1.000000 0.000000
vn 0.000000 1.000000 -0.000001
vn 0.000000 1.000000 0.000000
vn 0.000000 1.000000 -0.000003
vn 0.000000 1.000000 -0.000001
s off
g tree:pCone2
usemtl tree:initialShadingGroup
f 6/1/1 5/2/2 1/3/3
f 5/2/4 4/4/5 1/3/6
f 4/4/7 3/5/8 1/3/9
f 3/5/10 2/6/11 1/3/12
f 6/7/13 1/8/14 7/9/15
f 1/8/16 2/10/17 7/9/18
f 2/10/19 3/11/20 7/9/21
f 3/11/22 4/12/23 7/9/24
f 4/12/25 5/13/26 7/9/27
f 5/13/28 6/14/29 7/9/30
f 16/15/31 17/16/32 11/17/33
f 17/16/34 8/18/35 11/17/36
f 11/17/37 8/18/38 12/19/39
f 12/19/40 8/18/41 13/20/42
f 8/18/43 9/21/44 13/20/45
f 13/20/46 9/21/47 14/22/48
f 9/21/49 10/23/50 14/22/51
f 14/22/52 10/23/53 15/24/54
f 10/23/55 17/25/56 15/24/57
f 15/24/58 17/25/59 16/26/60
f 9/27/61 8/28/62 17/29/63
f 10/30/64 9/27/65 17/29/66
f 16/31/67 11/32/68 15/33/69
f 11/32/70 12/34/71 15/33/72
f 12/34/73 13/35/74 15/33/75
f 13/35/76 14/36/77 15/33/78
