# This file uses centimeters as units for non-parametric coordinates.

mtllib tree.mtl
g default
v 0.117346 0.245416 -0.361154
v -0.223205 0.245416 -0.307215
v -0.361153 0.245416 0.117346
v -0.223205 0.245416 0.307215
v 0.223205 0.245416 0.307215
v 0.361154 0.245416 -0.117346
v 0.000000 1.004894 0.000000
v -0.037590 0.004124 -0.050790
v -0.060822 0.004124 0.019400
v 0.037590 0.004124 0.050790
v 0.037590 0.666332 -0.050790
v -0.037590 0.666332 -0.050790
v -0.060822 0.666332 -0.019400
v -0.037590 0.666332 0.050790
v 0.037590 0.666332 0.050790
v 0.060822 0.666332 -0.019400
v 0.060822 0.004124 -0.019400
vt 0.577254 0.012236
vt 0.353054 0.047746
vt 0.262236 0.327254
vt 0.353054 0.452254
vt 0.646946 0.452254
vt 0.737764 0.172746
vt 0.250000 0.500000
vt 0.325000 0.500000
vt 0.400000 0.500000
vt 0.500000 0.500000
vt 0.550000 0.500000
vt 0.650000 0.500000
vt 0.750000 0.500000
vt 0.500000 1.000000
vt 0.375000 0.312500
vt 0.400000 0.688440
vt 0.375000 0.688440
vt 0.450000 0.312500
vt 0.450000 0.688440
vt 0.475000 0.688440
vt 0.500000 0.312500
vt 0.525000 0.688440
vt 0.575000 0.312500
vt 0.575000 0.688440
vt 0.625000 0.688440
vt 0.625000 0.312500
vt 0.648603 0.107966
vt 0.408159 0.029841
vt 0.351397 0.204534
vt 0.591841 0.282659
vt 0.591841 0.970159
vt 0.408159 0.970159
vt 0.351397 0.892034
vt 0.408159 0.717341
vt 0.591842 0.717341
vt 0.648603 0.892034
vn 0.000000 -1.000000 -0.000000
vn 0.000000 -1.000000 0.000000
vn 0.000000 -1.000000 -0.000000
vn 0.000000 -1.000000 0.000000
vn 0.000000 -1.000000 -0.000000
vn 0.000000 -1.000000 -0.000000
vn 0.883193 0.443539 -0.152456
vn 0.276393 0.447214 -0.850651
vn 0.055912 0.995038 0.082299
vn -0.624907 0.443539 -0.642467
vn -0.901774 0.431783 0.019182
vn -0.296906 0.431783 0.851710
vn 0.525731 0.447214 0.723607
vn 1.000000 0.000000 0.000000
vn 0.812130 -0.027565 -0.582825
vn 0.310871 -0.003290 -0.950447
vn -0.312546 -0.036533 -0.949200
vn -0.303882 0.000000 -0.952710
vn -0.999809 0.011819 -0.015544
vn -0.809468 -0.036670 0.586018
vn -0.570507 0.007737 0.821257
vn 0.322126 -0.026110 0.946337
vn 0.580668 0.000000 0.814141
vn 0.000000 -1.000000 -0.000000
vn 0.000000 -1.000000 -0.000000
vn 0.000000 -1.000000 -0.000000
vn 0.000000 -1.000000 -0.000000
vn 0.000000 1.000000 0.000000
vn 0.000000 1.000000 0.000000
vn 0.000000 1.000000 -0.000001
vn 0.000000 1.000000 0.000001
vn 0.000000 1.000000 0.000000
vn 0.000000 1.000000 -0.000003
s 1
g pCone2
usemtl initialShadingGroup
f 6/6/1 5/5/2 1/1/3
f 5/5/2 4/4/4 1/1/3
f 4/4/4 3/3/5 1/1/3
f 3/3/5 2/2/6 1/1/3
s 2
f 6/7/7 1/8/8 7/14/9
f 1/8/8 2/9/10 7/14/9
f 2/9/10 3/10/11 7/14/9
f 3/10/11 4/11/12 7/14/9
f 4/11/12 5/12/13 7/14/9
f 5/12/13 6/13/7 7/14/9
s 3
f 16/17/14 17/15/15 11/16/16
f 17/15/15 8/18/17 11/16/16
f 11/16/16 8/18/17 12/19/18
f 12/19/18 8/18/17 13/20/19
f 8/18/17 9/21/20 13/20/19
f 13/20/19 9/21/20 14/22/21
f 9/21/20 10/23/22 14/22/21
f 14/22/21 10/23/22 15/24/23
f 10/23/22 17/26/15 15/24/23
f 15/24/23 17/26/15 16/25/14
s 4
f 9/29/24 8/28/25 17/27/26
f 10/30/27 9/29/24 17/27/26
s 5
f 16/36/28 11/31/29 15/35/30
f 11/31/29 12/32/31 15/35/30
f 12/32/31 13/33/32 15/35/30
f 13/33/32 14/34/33 15/35/30
